<svg id="visual" viewBox="0 0 960 540" width="960" height="540" xmlns="http://www.w3.org/2000/svg" xmlns:xlink="http://www.w3.org/1999/xlink" version="1.1"><rect x="0" y="0" width="960" height="540" fill="#001220"></rect><defs><linearGradient id="grad1_0" x1="43.8%" y1="0%" x2="100%" y2="100%"><stop offset="14.444444444444446%" stop-color="#001220" stop-opacity="1"></stop><stop offset="85.55555555555554%" stop-color="#001220" stop-opacity="1"></stop></linearGradient></defs><defs><linearGradient id="grad2_0" x1="0%" y1="0%" x2="56.3%" y2="100%"><stop offset="14.444444444444446%" stop-color="#001220" stop-opacity="1"></stop><stop offset="85.55555555555554%" stop-color="#001220" stop-opacity="1"></stop></linearGradient></defs><g transform="translate(960, 0)"><path d="M0 351C-48.4 349.4 -96.9 347.8 -134.3 324.3C-171.8 300.8 -198.3 255.4 -216.4 216.4C-234.5 177.4 -244.1 144.8 -265.2 109.8C-286.2 74.8 -318.6 37.4 -351 0L0 0Z" fill="#009473"></path></g><g transform="translate(0, 540)"><path d="M0 -351C38.8 -331.3 77.7 -311.6 123.6 -298.4C169.5 -285.3 222.6 -278.7 248.2 -248.2C273.8 -217.7 272 -163.2 284.6 -117.9C297.1 -72.5 324.1 -36.3 351 0L0 0Z" fill="#009473"></path></g></svg>