<svg id="visual" viewBox="0 0 675 900" width="675" height="900" xmlns="http://www.w3.org/2000/svg" xmlns:xlink="http://www.w3.org/1999/xlink" version="1.1"><rect x="0" y="0" width="675" height="900" fill="#002233"></rect><path d="M0 739L16 749.3C32 759.7 64 780.3 96.2 772C128.3 763.7 160.7 726.3 192.8 706C225 685.7 257 682.3 289.2 688.5C321.3 694.7 353.7 710.3 385.8 724.7C418 739 450 752 482.2 745.3C514.3 738.7 546.7 712.3 578.8 706.5C611 700.7 643 715.3 659 722.7L675 730L675 901L659 901C643 901 611 901 578.8 901C546.7 901 514.3 901 482.2 901C450 901 418 901 385.8 901C353.7 901 321.3 901 289.2 901C257 901 225 901 192.8 901C160.7 901 128.3 901 96.2 901C64 901 32 901 16 901L0 901Z" fill="#0066FF" stroke-linecap="round" stroke-linejoin="miter"></path></svg>